<?xml version="1.0" encoding="utf-8"?>
<!-- Generator: Adobe Illustrator 24.0.0, SVG Export Plug-In . SVG Version: 6.00 Build 0)  -->
<svg version="1.1" id="Calque_1" xmlns="http://www.w3.org/2000/svg" xmlns:xlink="http://www.w3.org/1999/xlink" x="0px" y="0px"
	 viewBox="0 0 56.1 57.4" style="enable-background:new 0 0 56.1 57.4;" xml:space="preserve">
<g>
	<path d="M20.8,0c0.3,0,0.6,0.1,1,0.1c0.3,0,0.5,0.1,0.8,0.1c0.7,0.2,1.1,0.6,1.1,1.3c0,0.4,0,0.7,0.1,1.1c0,0.2,0.1,0.5,0.2,0.7
		c0.1,0.5,0.4,0.8,0.9,1c1,0.4,2,0.9,3.1,1.2c0.5,0.2,1,0.1,1.4-0.3c0.3-0.2,0.6-0.5,0.8-0.7c0.2-0.1,0.4-0.3,0.6-0.4
		c0.5-0.3,1-0.3,1.4,0.1c0.4,0.4,0.8,0.7,1.3,1.1c0.8,0.8,1.7,1.7,2.5,2.5c0.1,0.1,0.2,0.2,0.2,0.4c0,0.1,0,0.2,0,0.2
		c0,0.4-0.1,0.8-0.4,1.1c-0.3,0.3-0.5,0.6-0.8,0.9c-0.4,0.5-0.5,1.1-0.3,1.7c0.4,0.9,0.7,1.9,1.1,2.8c0.2,0.6,0.7,0.9,1.3,1
		c0.3,0.1,0.6,0,1,0.1c0.3,0,0.6,0,0.8,0.1c0.6,0.1,0.9,0.4,1,1c0.1,0.5,0.2,1,0.2,1.4c0.1,1.2,0.1,2.4-0.1,3.6
		c-0.2,0.9-0.5,1.3-1.5,1.4c-0.5,0-0.9,0.1-1.4,0.1c-0.6,0.1-1,0.3-1.2,0.9c-0.4,1-0.8,1.9-1.2,2.9c-0.2,0.5-0.1,1,0.2,1.4
		c0.2,0.2,0.4,0.5,0.6,0.7c0.2,0.2,0.4,0.4,0.6,0.7c0.1,0.1,0.2,0.3,0.2,0.5c0.1,0.3,0.1,0.6-0.2,0.9c-0.3,0.4-0.7,0.8-1.1,1.2
		c-0.9,0.9-1.7,1.7-2.6,2.6c-0.4,0.4-0.8,0.4-1.4,0.1c-0.3-0.1-0.5-0.3-0.7-0.5c-0.3-0.2-0.5-0.5-0.8-0.7c-0.4-0.3-0.9-0.4-1.4-0.3
		c-0.4,0.1-0.8,0.3-1.3,0.5c-0.5,0.2-1.1,0.5-1.6,0.7c-0.7,0.3-1,0.8-1,1.5c0,0.3,0,0.5,0,0.8c0,0.1,0,0.2,0,0.4
		c-0.1,1.1-0.8,1.6-1.7,1.6c-0.9,0-1.9,0-2.8,0c-0.5,0-0.9,0-1.4,0c-0.9,0-1.6-0.5-1.7-1.6c0-0.4,0-0.8-0.1-1.1c0-0.7-0.4-1.2-1-1.5
		c-0.9-0.4-1.9-0.8-2.8-1.1c-0.5-0.2-1-0.1-1.4,0.2c-0.2,0.1-0.4,0.3-0.6,0.5c-0.3,0.2-0.6,0.5-0.9,0.7c-0.4,0.3-0.8,0.3-1.2,0
		c-0.3-0.2-0.6-0.4-0.8-0.7c-1-0.9-2-1.9-2.9-2.9c-0.5-0.5-0.5-1.3-0.1-1.8c0.2-0.2,0.4-0.5,0.6-0.7C5.8,29,6,28.2,5.7,27.4
		c-0.3-0.8-0.7-1.7-1-2.5c-0.3-0.7-0.9-1-1.7-1.1c-0.4,0-0.8,0-1.2-0.1c-0.1,0-0.3-0.1-0.4-0.1c-0.5-0.1-0.8-0.5-0.9-0.9
		c-0.1-0.4-0.1-0.8-0.2-1.2c-0.1-1.2-0.1-2.5,0-3.7c0,0,0-0.1,0-0.1c0.2-1,0.5-1.3,1.6-1.4c0.4,0,0.8-0.1,1.3-0.1
		c0.7-0.1,1.1-0.4,1.4-1c0.4-1,0.8-2,1.1-3c0.1-0.5,0.1-0.9-0.2-1.3c-0.2-0.3-0.5-0.6-0.7-0.9C4.5,9.8,4.3,9.6,4.2,9.4
		c-0.2-0.3-0.2-0.7,0-1C4.3,8,4.5,7.8,4.7,7.5c0.9-1,1.9-1.9,2.8-2.8C7.7,4.5,8,4.3,8.2,4.2c0.4-0.2,0.8-0.2,1.1,0
		c0.2,0.1,0.4,0.3,0.6,0.5c0.3,0.2,0.6,0.5,0.9,0.7c0.5,0.3,1,0.4,1.6,0.2c0.9-0.4,1.8-0.8,2.8-1.1c0.5-0.2,0.8-0.6,0.9-1.1
		c0.1-0.4,0.1-0.9,0.2-1.3c0-0.3,0-0.5,0.1-0.8c0.1-0.5,0.4-0.8,0.9-1c0.5-0.2,1-0.2,1.6-0.2C18.9,0,19,0,19.2,0
		C19.7,0,20.2,0,20.8,0z M30.5,19.8c0-5.5-4.6-10.3-10.2-10.4c-6-0.1-10.6,4.7-10.7,10.4c0,5.8,4.7,10.5,10.4,10.5
		C25.7,30.3,30.5,25.7,30.5,19.8z"/>
	<path d="M56.1,42.5c0,0.1-0.1,0.2-0.1,0.3c-0.1,0.3-0.3,0.5-0.7,0.5c-0.4,0.1-0.8,0.3-1.1,0.6C54.1,44,54,44.2,54,44.3
		c-0.2,0.7-0.3,1.4-0.3,2.1c0,0.6,0.2,1,0.7,1.3c0.2,0.1,0.5,0.3,0.7,0.5c0.3,0.2,0.4,0.5,0.3,0.9c0,0.1-0.1,0.3-0.1,0.4
		c-0.4,0.8-0.9,1.7-1.3,2.5c-0.3,0.5-0.6,0.6-1.2,0.4c-0.2-0.1-0.4-0.2-0.6-0.2C52,52,51.8,52,51.7,51.9c-0.3-0.1-0.5-0.1-0.8,0.1
		c-0.7,0.4-1.3,0.9-1.8,1.4c-0.2,0.2-0.3,0.5-0.3,0.8c0,0.3,0.1,0.7,0.1,1c0.2,0.9,0,1.1-0.7,1.5c-0.8,0.4-1.7,0.6-2.7,0.8
		c-0.7,0.1-1.1-0.2-1.3-0.8c-0.1-0.2-0.1-0.4-0.2-0.6c-0.2-0.4-0.5-0.7-1-0.8c-0.7-0.1-1.3-0.2-2-0.2c-0.4,0-0.8,0.2-1,0.6
		c-0.1,0.2-0.2,0.3-0.3,0.5c-0.1,0.2-0.2,0.4-0.4,0.5c-0.2,0.2-0.4,0.2-0.7,0.1c-1-0.5-2-1-2.9-1.6c-0.1,0-0.1-0.1-0.2-0.1
		c-0.4-0.3-0.4-0.5-0.2-1c0.1-0.3,0.2-0.6,0.4-0.8c0.2-0.4,0.1-0.8-0.1-1.1c-0.4-0.6-0.9-1.2-1.4-1.7c-0.3-0.3-0.7-0.3-1.1-0.2
		c-0.3,0.1-0.5,0.1-0.8,0.2c-0.4,0.1-0.7,0-0.9-0.3c-0.1-0.2-0.2-0.3-0.3-0.5c-0.4-0.9-0.7-1.8-0.8-2.7c-0.1-0.6,0.1-0.9,0.7-1.1
		c0.3-0.1,0.5-0.2,0.8-0.3c0.3-0.1,0.5-0.4,0.6-0.7c0.2-0.8,0.3-1.7,0.2-2.6c0-0.2-0.1-0.4-0.3-0.5c-0.2-0.2-0.4-0.3-0.6-0.5
		c-0.2-0.1-0.4-0.3-0.5-0.4c-0.2-0.2-0.3-0.5-0.1-0.8c0.5-0.9,1-1.8,1.4-2.7c0.1-0.1,0.2-0.2,0.2-0.3c0.3-0.3,0.5-0.4,0.9-0.2
		c0.3,0.1,0.6,0.2,0.8,0.4c0.4,0.2,0.9,0.2,1.3-0.1c0.6-0.4,1.1-0.9,1.7-1.4c0.2-0.3,0.3-0.5,0.3-0.9c-0.1-0.4-0.1-0.8-0.2-1.1
		c-0.1-0.4,0.1-0.7,0.4-0.9c0.3-0.2,0.6-0.3,1-0.4c0.7-0.2,1.3-0.5,2-0.5c0.2,0,0.4,0,0.7,0c0.2,0,0.3,0.1,0.4,0.3
		c0.1,0.3,0.3,0.6,0.4,0.9c0.2,0.6,0.6,1,1.3,1c0.5,0.1,1.1,0.1,1.6,0.2c0.2,0,0.3,0,0.5,0c0.4,0,0.6-0.2,0.8-0.6
		c0.1-0.2,0.2-0.4,0.3-0.6c0.3-0.5,0.6-0.6,1.1-0.4c0.2,0.1,0.4,0.1,0.6,0.2c0.8,0.4,1.6,0.9,2.4,1.3c0.4,0.2,0.5,0.5,0.4,0.9
		c-0.1,0.3-0.2,0.6-0.3,0.8c-0.3,0.6-0.3,1.1,0.2,1.6c0.4,0.4,0.7,0.9,1.1,1.3c0.4,0.4,0.8,0.5,1.3,0.4c0.2-0.1,0.4-0.1,0.6-0.1
		c0.6-0.2,1,0,1.2,0.6c0.4,0.9,0.7,1.8,0.8,2.7c0,0.1,0,0.1,0.1,0.2C56.1,42.2,56.1,42.4,56.1,42.5z M43.1,37.5
		c-1.1,0-2.3,0.2-3.3,0.8c-0.7,0.4-1.3,1-1.9,1.6c-0.5,0.5-0.9,1.1-1.2,1.8c-0.6,1.4-0.6,2.8-0.3,4.2c0.3,1.7,1.3,3,2.6,4
		c2.2,1.6,4.6,1.8,7.1,0.7c2.1-0.9,3.4-2.6,3.9-4.8c0.1-0.4,0.1-0.7,0.1-1.1c0-0.7,0-1.4-0.1-2.1C49.1,39.7,46.2,37.4,43.1,37.5z"/>
	<path d="M43.1,5.1c0-0.2,0-0.4,0-0.7c0-0.2,0.1-0.4,0.3-0.4c0.5-0.2,1.1-0.4,1.7-0.5c0.4,0,0.6,0.1,0.8,0.4
		c0.1,0.1,0.1,0.3,0.2,0.4c0.1,0.3,0.3,0.5,0.6,0.5C47,5,47.5,5.1,47.9,5.2c0.1,0,0.2-0.1,0.3-0.1c0.2-0.2,0.3-0.4,0.5-0.6
		c0.2-0.2,0.3-0.2,0.6-0.1c0.6,0.3,1.1,0.6,1.6,1c0.2,0.1,0.2,0.3,0.2,0.5C51,6,50.9,6.2,50.9,6.3c-0.2,0.3-0.1,0.6,0.1,0.9
		c0.2,0.2,0.4,0.5,0.5,0.7c0.1,0.2,0.3,0.3,0.6,0.3c0.3,0,0.5,0,0.8,0c0.3,0,0.4,0.1,0.5,0.4c0.2,0.5,0.3,1.1,0.4,1.6
		c0,0.5-0.2,0.8-0.7,0.8c-0.3,0-0.5,0.2-0.6,0.5c-0.2,0.5-0.2,1-0.2,1.5c0,0.2,0.1,0.3,0.3,0.5c0.1,0.1,0.2,0.1,0.3,0.2
		c0.3,0.2,0.3,0.4,0.2,0.7c-0.3,0.6-0.6,1.2-1,1.7c-0.2,0.3-0.4,0.3-0.7,0.1c-0.5-0.3-0.9-0.2-1.4,0.1c-0.2,0.1-0.3,0.3-0.5,0.4
		c-0.2,0.2-0.3,0.4-0.3,0.6c0,0.2,0,0.4,0,0.6c0,0.4-0.2,0.6-0.6,0.8c-0.5,0.2-1,0.3-1.5,0.3c-0.5,0-0.7-0.1-0.8-0.6
		c0-0.1,0-0.1-0.1-0.2c-0.1-0.3-0.2-0.4-0.5-0.5c-0.3-0.1-0.5-0.1-0.8-0.2c-0.2,0-0.4,0-0.6-0.1c-0.2,0-0.3,0-0.3,0.1
		c-0.2,0.2-0.4,0.4-0.6,0.6c-0.2,0.2-0.3,0.2-0.6,0.1c-0.6-0.3-1.1-0.7-1.7-1.1C41,17.1,41,16.9,41,16.7c0.1-0.2,0.1-0.4,0.2-0.5
		c0.1-0.3,0.1-0.5,0-0.7c-0.2-0.3-0.4-0.6-0.6-0.8c-0.1-0.2-0.4-0.3-0.6-0.3c-0.2,0-0.5,0-0.7,0c-0.4,0-0.5-0.1-0.6-0.5
		c-0.1-0.5-0.3-1-0.3-1.5c-0.1-0.4,0.1-0.6,0.5-0.8c0.1,0,0.1-0.1,0.2-0.1c0.4-0.1,0.6-0.4,0.7-0.8c0.1-0.3,0.1-0.6,0.1-1
		c0-0.4-0.1-0.6-0.4-0.8c-0.5-0.3-0.6-0.4-0.3-1c0.3-0.5,0.6-1,0.9-1.5c0.1-0.2,0.3-0.2,0.5-0.2c0.2,0.1,0.4,0.1,0.6,0.2
		c0.3,0.1,0.6,0.1,0.8-0.1c0.3-0.2,0.6-0.4,0.8-0.6C43,5.6,43.1,5.4,43.1,5.1z M46,7.2c-2.3-0.1-4.1,2-4.1,4c0,2.5,2.1,4.1,4.1,4.1
		c2.1,0,4.1-1.9,4.1-4C50.2,9.4,48.4,7.1,46,7.2z"/>
</g>
</svg>
