<?xml version="1.0" encoding="utf-8"?>
<!-- Generator: Adobe Illustrator 24.0.0, SVG Export Plug-In . SVG Version: 6.00 Build 0)  -->
<svg version="1.1" id="Calque_1" xmlns="http://www.w3.org/2000/svg" xmlns:xlink="http://www.w3.org/1999/xlink" x="0px" y="0px"
	 viewBox="0 0 220 82.6" style="enable-background:new 0 0 220 82.6;" xml:space="preserve">
<g>
	<g>
		<path style="fill:#D7FF00;" d="M175.9,50.3l5.9-18.6l6,18.6h26.1L199.4,6.1l-9.5,29l3.8,1.1l5.9-18.5l9.2,28.6h-18.5
			c-2.6-8.1-8.6-26.3-8.6-26.3s-6.6,20.2-8.7,26.3h-6.5l2.4,3.9H175.9z"/>
		<path style="fill:#D7FF00;" d="M188,63.4L184.9,53h-14.4l1.2,2h11.8l4.6,13.9l4.6-13.9h10.2l-5.1,15.9l-3.3-10.2l-1.7,0.6
			l5.1,15.3c0,0,5.1-15.6,7.6-23.4h-13.9L188,63.4z"/>
	</g>
	<g>
		<g>
			<polygon style="fill:#D7FF00;" points="140.8,50.3 142.1,46.3 125.7,46.3 123.5,50.3 			"/>
			<polygon style="fill:#D7FF00;" points="88.4,46.3 87.1,50.3 106.4,50.3 106.7,46.3 			"/>
			<polygon style="fill:#000001;" points="131,37 145.3,37 146.6,33 133.3,33 			"/>
			<polygon style="fill:#000001;" points="143,43.6 144.3,39.7 129.5,39.7 127.3,43.6 			"/>
			<polygon style="fill:#000001;" points="90.7,39.7 89.3,43.6 106.9,43.6 107.2,39.7 			"/>
			<polygon style="fill:#000001;" points="122.9,33 115.4,46.2 116.4,33 110.8,33 109.5,50.3 119.9,50.3 129.8,33 			"/>
			<polygon style="fill:#000001;" points="52.8,33 53.9,37 62.6,37 58.1,50.3 64.3,50.3 68.8,37 78.4,37 73.9,50.3 80.1,50.3 
				84.6,37 107.4,37 107.7,33 			"/>
			<polygon style="fill:#000001;" points="35,50.3 45,37.8 47.1,46.3 42.4,46.3 39.7,50.3 49.9,50.3 54.4,50.3 49.6,33 36.4,33 
				39.8,34.7 30.5,46.2 31.4,34.2 32.3,33 24.6,33 13.5,46.9 18.2,33 12,33 6.1,50.3 18.4,50.3 25.2,41.9 24.5,50.3 			"/>
		</g>
		<polygon style="fill:#000001;" points="154.4,42.6 162,55 168.1,55 160.6,42.6 164.6,42.6 167.9,33 149.9,33 144,50.3 150.2,50.3 
			154.7,37 160.3,37 158.4,42.6 		"/>
	</g>
</g>
</svg>
