<?xml version="1.0" encoding="utf-8"?>
<!-- Generator: Adobe Illustrator 24.0.0, SVG Export Plug-In . SVG Version: 6.00 Build 0)  -->
<svg version="1.1" id="Calque_1" xmlns="http://www.w3.org/2000/svg" xmlns:xlink="http://www.w3.org/1999/xlink" x="0px" y="0px"
	 viewBox="0 0 20 20" style="enable-background:new 0 0 20 20;" xml:space="preserve">
<style type="text/css">
	.st0{fill:#FFFFFF;}
</style>
<path class="st0" d="M11.5,10.3c0.1,0,0.1,0,0.2,0c0.8,0,1.5,0,2.3,0c0.1,0,0.1,0,0.2,0c0-0.3,0.1-0.6,0.1-0.8
	c0-0.3,0.1-0.5,0.1-0.8s0.1-0.6,0.1-0.8c0-0.3,0.1-0.5,0.1-0.8c-1,0-2,0-3,0c0-0.1,0-0.1,0-0.2c0-0.3,0-0.6,0-0.9s0-0.6,0-1
	c0-0.1,0-0.2,0.1-0.3c0.1-0.2,0.2-0.4,0.4-0.4c0.1,0,0.3-0.1,0.4-0.1c0.3,0,0.5,0,0.8,0c0.4,0,0.7,0,1.1,0c0.1,0,0.1,0,0.2,0
	c0-0.1,0-0.1,0-0.1c0-1,0-2,0-3c0,0,0-0.1,0-0.2c-0.1,0-0.1,0-0.2,0c-0.7,0-1.5,0-2.2,0c-0.4,0-0.7,0-1.1,0c-0.4,0-0.7,0.1-1.1,0.2
	c-1.2,0.3-1.9,1-2.2,2.1C7.6,3.7,7.5,4.3,7.5,4.8c0,0.7,0,1.3,0,2c0,0.1,0,0.1,0,0.2C7.3,7,7.1,7,6.8,7C6.6,7,6.4,7,6.2,7
	C6,7,5.8,7,5.6,7c0,1.1,0,2.2,0,3.3c0.1,0,0.1,0,0.2,0c0.5,0,1.1,0,1.6,0c0.1,0,0.1,0,0.2,0c0,0.4,0,8.5,0,8.9h4.1
	c-0.1,0-0.1,0-0.2,0C11.5,16.3,11.5,13.3,11.5,10.3z"/>
</svg>
