<?xml version="1.0" encoding="utf-8"?>
<!-- Generator: Adobe Illustrator 24.0.0, SVG Export Plug-In . SVG Version: 6.00 Build 0)  -->
<svg version="1.1" id="Calque_1" xmlns="http://www.w3.org/2000/svg" xmlns:xlink="http://www.w3.org/1999/xlink" x="0px" y="0px"
	 viewBox="0 0 20 20" style="enable-background:new 0 0 20 20;" xml:space="preserve">
<style type="text/css">
	.st0{fill:#FFFFFF;}
</style>
<g>
	<path class="st0" d="M10,19.3c-0.9,0-1.7,0-2.6,0c-0.7,0-1.3,0-2-0.1c-0.9-0.1-1.8-0.4-2.6-1c-1-0.7-1.6-1.7-1.9-2.9
		c-0.1-0.4-0.2-0.9-0.2-1.3c-0.1-1.4-0.1-2.8-0.1-4.1c0-0.9,0-1.7,0-2.6c0-0.7,0-1.3,0.1-2c0.1-1,0.4-1.9,1-2.7
		c0.7-0.9,1.6-1.5,2.7-1.8c0.7-0.2,1.4-0.2,2.1-0.3c1.8-0.1,3.7,0,5.5,0c0.7,0,1.5,0,2.2,0.1C15.1,0.8,16,1,16.7,1.4
		C17.8,2,18.5,2.9,18.9,4c0.2,0.7,0.3,1.3,0.4,2c0,0.7,0.1,1.3,0.1,2c0,1.3,0,2.6,0,3.9c0,0.8,0,1.5-0.1,2.3
		c-0.1,0.9-0.3,1.8-0.7,2.5c-0.6,1.1-1.5,1.8-2.7,2.2c-0.6,0.2-1.3,0.3-1.9,0.3C12.6,19.3,11.3,19.3,10,19.3
		C10,19.4,10,19.3,10,19.3z M10,17.6L10,17.6c0.4,0,0.9,0,1.3,0c0.8,0,1.6,0,2.4,0c0.4,0,0.9-0.1,1.3-0.2c0.5-0.1,1.1-0.3,1.5-0.7
		c0.6-0.5,0.9-1.2,1.1-2c0.1-0.6,0.1-1.1,0.1-1.7c0-0.7,0-1.5,0-2.2s0-1.4,0-2.1c0-0.8,0-1.7,0-2.5c0-0.6-0.1-1.1-0.3-1.6
		c-0.3-0.9-0.9-1.5-1.8-1.9c-0.5-0.2-1.1-0.3-1.6-0.3c-1,0-1.9-0.1-2.9-0.1c-1.2,0-2.5,0-3.7,0c-0.7,0-1.3,0-2,0.1
		C4.8,2.6,4.3,2.7,3.9,3C3.1,3.5,2.7,4.3,2.5,5.2C2.4,5.8,2.4,6.4,2.3,6.9c0,0.8,0,1.6,0,2.4c0,1.2,0,2.3,0,3.5c0,0.6,0,1.2,0.1,1.8
		c0.1,0.5,0.2,0.9,0.4,1.4c0.5,0.9,1.3,1.4,2.3,1.6c0.6,0.1,1.1,0.1,1.7,0.1C7.9,17.6,8.9,17.6,10,17.6z"/>
	<path class="st0" d="M10,5.2c2.6,0,4.8,2.1,4.8,4.8c0,2.6-2.1,4.8-4.7,4.8c-2.7,0-4.8-2.1-4.9-4.7C5.1,7.4,7.3,5.2,10,5.2z
		 M13.1,10c0-1.7-1.4-3.1-3.2-3.1c-1.7,0-3.1,1.4-3.1,3.2c0,1.7,1.4,3.1,3.1,3.1C11.7,13.1,13.1,11.7,13.1,10z"/>
	<path class="st0" d="M16.1,5c0,0.6-0.5,1.1-1.1,1.1S13.9,5.6,13.9,5s0.5-1.1,1.1-1.1S16.1,4.4,16.1,5z"/>
</g>
</svg>
