<?xml version="1.0" encoding="utf-8"?>
<!-- Generator: Adobe Illustrator 24.0.0, SVG Export Plug-In . SVG Version: 6.00 Build 0)  -->
<svg version="1.1" id="Calque_1" xmlns="http://www.w3.org/2000/svg" xmlns:xlink="http://www.w3.org/1999/xlink" x="0px" y="0px"
	 viewBox="0 0 20 20" style="enable-background:new 0 0 20 20;" xml:space="preserve">
<path d="M44.6-21.8c0.1,0,0.1,0,0.2,0c0.7,0,1.3,0,2,0c0.1,0,0.1,0,0.2,0c0-0.2,0.1-0.5,0.1-0.7c0-0.2,0-0.5,0.1-0.7
	c0-0.2,0-0.5,0.1-0.7c0-0.2,0.1-0.5,0.1-0.7c-0.9,0-1.7,0-2.6,0c0-0.1,0-0.1,0-0.1c0-0.3,0-0.5,0-0.8c0-0.3,0-0.6,0-0.8
	c0-0.1,0-0.2,0.1-0.3c0.1-0.2,0.2-0.3,0.3-0.4c0.1,0,0.3-0.1,0.4-0.1c0.2,0,0.4,0,0.7,0c0.3,0,0.6,0,0.9,0c0,0,0.1,0,0.1,0
	c0,0,0-0.1,0-0.1c0-0.9,0-1.7,0-2.6c0,0,0-0.1,0-0.1c-0.1,0-0.1,0-0.2,0c-0.6,0-1.3,0-1.9,0c-0.3,0-0.6,0-0.9,0
	c-0.3,0-0.6,0.1-0.9,0.2c-0.9,0.3-1.6,0.9-1.9,1.9c-0.1,0.5-0.2,1-0.2,1.4c0,0.6,0,1.2,0,1.8c0,0,0,0.1,0,0.1c-0.2,0-0.4,0-0.6,0
	c-0.2,0-0.4,0-0.6,0c-0.2,0-0.4,0-0.6,0c0,1,0,1.9,0,2.9c0.1,0,0.1,0,0.2,0c0.5,0,0.9,0,1.4,0c0,0,0.1,0,0.1,0c0,0.3,0,7.4,0,7.7
	h3.6c-0.1,0-0.1,0-0.1,0C44.6-16.7,44.6-19.2,44.6-21.8z"/>
<g>
	<path d="M13.1-12.8c-0.9,0-1.7,0-2.6,0c-0.7,0-1.3,0-2-0.1c-0.9-0.1-1.8-0.4-2.6-1c-1-0.7-1.6-1.7-1.9-2.9
		c-0.1-0.4-0.2-0.9-0.2-1.3c-0.1-1.4-0.1-2.8-0.1-4.1c0-0.9,0-1.7,0-2.6c0-0.7,0-1.3,0.1-2c0.1-1,0.4-1.9,1-2.7
		c0.7-0.9,1.6-1.5,2.7-1.8c0.7-0.2,1.4-0.2,2.1-0.3c1.8-0.1,3.7,0,5.5,0c0.7,0,1.5,0,2.2,0.1c0.9,0.1,1.7,0.3,2.5,0.7
		c1.1,0.6,1.8,1.5,2.2,2.6c0.2,0.7,0.3,1.3,0.4,2c0,0.7,0.1,1.3,0.1,2c0,1.3,0,2.6,0,3.9c0,0.8,0,1.5-0.1,2.3
		c-0.1,0.9-0.3,1.8-0.7,2.5c-0.6,1.1-1.5,1.8-2.7,2.2c-0.6,0.2-1.3,0.3-1.9,0.3C15.7-12.8,14.4-12.8,13.1-12.8
		C13.1-12.7,13.1-12.7,13.1-12.8z M13.1-14.5C13.1-14.5,13.1-14.5,13.1-14.5c0.4,0,0.9,0,1.3,0c0.8,0,1.6,0,2.4,0
		c0.4,0,0.9-0.1,1.3-0.2c0.5-0.1,1.1-0.3,1.5-0.7c0.6-0.5,0.9-1.2,1.1-2c0.1-0.6,0.1-1.1,0.1-1.7c0-0.7,0-1.5,0-2.2
		c0-0.7,0-1.4,0-2.1c0-0.8,0-1.7,0-2.5c0-0.6-0.1-1.1-0.3-1.6c-0.3-0.9-0.9-1.5-1.8-1.9c-0.5-0.2-1.1-0.3-1.6-0.3
		c-1,0-1.9-0.1-2.9-0.1c-1.2,0-2.5,0-3.7,0c-0.7,0-1.3,0-2,0.1c-0.5,0.1-0.9,0.2-1.3,0.5c-0.8,0.5-1.3,1.3-1.4,2.2
		c-0.1,0.6-0.1,1.1-0.1,1.7c0,0.8,0,1.6,0,2.4c0,1.2,0,2.3,0,3.5c0,0.6,0,1.2,0.1,1.8c0.1,0.5,0.2,0.9,0.4,1.4
		c0.5,0.9,1.3,1.4,2.3,1.6c0.6,0.1,1.1,0.1,1.7,0.1C11-14.5,12.1-14.5,13.1-14.5z"/>
	<path d="M13.1-26.9c2.6,0,4.8,2.1,4.8,4.8c0,2.6-2.1,4.8-4.7,4.8c-2.7,0-4.8-2.1-4.9-4.7C8.2-24.7,10.4-26.9,13.1-26.9z M16.2-22.1
		c0-1.7-1.4-3.1-3.2-3.1c-1.7,0-3.1,1.4-3.1,3.2c0,1.7,1.4,3.1,3.1,3.1C14.8-19,16.2-20.4,16.2-22.1z"/>
	<path d="M19.2-27.1c0,0.6-0.5,1.1-1.1,1.1c-0.6,0-1.1-0.5-1.1-1.1c0-0.6,0.5-1.1,1.1-1.1C18.7-28.2,19.2-27.7,19.2-27.1z"/>
</g>
<path d="M0.8,15.8c0.2,0,0.4,0,0.7,0c0.2,0,0.4,0,0.7,0c0.2,0,0.4,0,0.7-0.1c0.2,0,0.4-0.1,0.6-0.1c0.2,0,0.4-0.1,0.6-0.2
	c0.2-0.1,0.4-0.1,0.6-0.2C4.8,15.2,5,15.1,5.2,15c0.2-0.1,0.4-0.2,0.6-0.3c0.2-0.1,0.4-0.2,0.5-0.4c-0.1,0-0.2,0-0.2,0
	c-0.3,0-0.6-0.1-0.9-0.2c-0.4-0.1-0.8-0.3-1.1-0.6c-0.3-0.3-0.6-0.6-0.8-0.9C3.1,12.2,3,12,2.9,11.7c0-0.1,0-0.1,0.1-0.1
	c0.2,0,0.5,0.1,0.7,0.1c0.3,0,0.5,0,0.8-0.1c0,0,0,0,0,0c0,0,0,0-0.1,0c-0.3-0.1-0.6-0.2-0.9-0.3c-0.3-0.1-0.5-0.3-0.7-0.5
	c-0.2-0.2-0.4-0.4-0.6-0.7C1.9,9.7,1.7,9.3,1.6,8.8C1.6,8.6,1.5,8.4,1.5,8.2c0-0.1,0-0.2,0-0.3c0,0,0-0.1,0.1,0c0,0,0.1,0,0.1,0.1
	C2,8,2.4,8.1,2.8,8.2c0.1,0,0.2,0,0.3,0c0,0,0.1,0,0.1,0c0,0,0,0-0.1-0.1C2.9,8,2.8,7.9,2.6,7.7C2.3,7.5,2.1,7.2,2,6.9
	C1.8,6.5,1.7,6.2,1.6,5.8c-0.1-0.3-0.1-0.6-0.1-1c0-0.5,0.1-0.9,0.3-1.3C1.9,3.5,2,3.3,2,3.2c0,0,0,0,0.1,0c0.1,0.1,0.2,0.2,0.2,0.3
	C2.5,3.7,2.6,3.9,2.8,4C3,4.2,3.2,4.4,3.4,4.5c0.2,0.2,0.5,0.4,0.7,0.6c0.3,0.2,0.6,0.4,1,0.6c0.3,0.2,0.7,0.4,1.1,0.5
	C6.4,6.4,6.7,6.5,7,6.6C7.5,6.8,8,6.9,8.5,7C8.8,7,9,7.1,9.3,7.1c0.2,0,0.3,0,0.5,0c0,0,0,0,0.1,0c0,0,0,0,0,0c0,0,0,0,0,0
	c0-0.1,0-0.3-0.1-0.4c0-0.2,0-0.3,0-0.5C9.8,5.7,9.8,5.4,10,5c0.1-0.3,0.2-0.6,0.4-0.8c0.1-0.2,0.3-0.4,0.5-0.6
	c0.4-0.4,0.8-0.7,1.3-0.8c0.3-0.1,0.5-0.2,0.8-0.2c0.3,0,0.6-0.1,0.9,0c0.5,0,0.9,0.1,1.3,0.3c0.3,0.1,0.5,0.3,0.7,0.4
	c0.1,0.1,0.3,0.2,0.4,0.4c0,0,0.1,0,0.1,0c0.5-0.1,1-0.3,1.5-0.5c0.2-0.1,0.5-0.2,0.7-0.4c0,0,0,0,0.1,0c0,0,0,0.1,0,0.1
	c-0.1,0.2-0.2,0.4-0.3,0.6c-0.2,0.3-0.4,0.6-0.7,0.9c-0.2,0.2-0.3,0.3-0.5,0.4c0,0,0,0,0,0c0.1,0,0.7-0.1,1.1-0.2
	c0.3-0.1,0.7-0.2,1-0.4c0,0,0,0,0,0C19,4.6,18.9,4.8,18.7,5c-0.2,0.2-0.3,0.4-0.5,0.6c-0.2,0.2-0.4,0.4-0.7,0.6c0,0,0,0-0.1,0.1
	c0,0-0.1,0.1-0.1,0.1c0,0.2,0,0.4,0,0.6c0,0.2,0,0.3,0,0.5c0,0.2,0,0.3,0,0.5c0,0.2,0,0.4-0.1,0.6c0,0.3-0.1,0.6-0.2,0.9
	c-0.1,0.4-0.2,0.8-0.4,1.2c-0.1,0.3-0.3,0.6-0.4,1c-0.2,0.4-0.4,0.8-0.7,1.2c-0.2,0.4-0.5,0.7-0.8,1.1c-0.3,0.3-0.6,0.6-0.9,0.9
	c-0.2,0.2-0.4,0.4-0.6,0.5c-0.3,0.2-0.6,0.5-1,0.7c-0.3,0.2-0.6,0.3-0.9,0.5c-0.3,0.1-0.5,0.2-0.8,0.3c-0.4,0.1-0.8,0.3-1.2,0.4
	c-0.3,0.1-0.7,0.2-1.1,0.2c-0.2,0-0.4,0-0.5,0.1c-0.2,0-0.4,0-0.6,0.1c-0.1,0-0.2,0-0.3,0c-0.3,0-0.6,0-0.8,0c-0.1,0-0.3,0-0.4,0
	c-0.1,0-0.2,0-0.3,0c-0.2,0-0.4,0-0.5-0.1c-0.3,0-0.5-0.1-0.8-0.2c-0.3-0.1-0.5-0.1-0.8-0.2c-0.3-0.1-0.5-0.2-0.7-0.3
	c-0.4-0.2-0.7-0.3-1.1-0.5C1.3,16.1,1.1,16,0.8,15.8C0.8,15.9,0.8,15.9,0.8,15.8z"/>
</svg>
