<?xml version="1.0" encoding="utf-8"?>
<!-- Generator: Adobe Illustrator 24.0.0, SVG Export Plug-In . SVG Version: 6.00 Build 0)  -->
<svg version="1.1" id="Calque_1" xmlns="http://www.w3.org/2000/svg" xmlns:xlink="http://www.w3.org/1999/xlink" x="0px" y="0px"
	 viewBox="0 0 20 20" style="enable-background:new 0 0 20 20;" xml:space="preserve">
<style type="text/css">
	.st0{fill:#FFFFFF;}
</style>
<path class="st0" d="M0.8,15.8c0.2,0,0.4,0,0.7,0c0.2,0,0.4,0,0.7,0c0.2,0,0.4,0,0.7-0.1c0.2,0,0.4-0.1,0.6-0.1
	c0.2,0,0.4-0.1,0.6-0.2c0.2-0.1,0.4-0.1,0.6-0.2c0.1,0,0.3-0.1,0.5-0.2s0.4-0.2,0.6-0.3s0.4-0.2,0.5-0.4c-0.1,0-0.2,0-0.2,0
	c-0.3,0-0.6-0.1-0.9-0.2c-0.4-0.1-0.8-0.3-1.1-0.6s-0.6-0.6-0.8-0.9C3.1,12.2,3,12,2.9,11.7c0-0.1,0-0.1,0.1-0.1
	c0.2,0,0.5,0.1,0.7,0.1c0.3,0,0.5,0,0.8-0.1l0,0c0,0,0,0-0.1,0c-0.3-0.1-0.6-0.2-0.9-0.3S3,11,2.8,10.8s-0.4-0.4-0.6-0.7
	C1.9,9.7,1.7,9.3,1.6,8.8c0-0.2-0.1-0.4-0.1-0.6c0-0.1,0-0.2,0-0.3c0,0,0-0.1,0.1,0c0,0,0.1,0,0.1,0.1C2,8,2.4,8.1,2.8,8.2
	c0.1,0,0.2,0,0.3,0h0.1c0,0,0,0-0.1-0.1C2.9,8,2.8,7.9,2.6,7.7C2.3,7.5,2.1,7.2,2,6.9C1.8,6.5,1.7,6.2,1.6,5.8
	c-0.1-0.3-0.1-0.6-0.1-1c0-0.5,0.1-0.9,0.3-1.3C1.9,3.5,2,3.3,2,3.2c0,0,0,0,0.1,0c0.1,0.1,0.2,0.2,0.2,0.3C2.5,3.7,2.6,3.9,2.8,4
	C3,4.2,3.2,4.4,3.4,4.5c0.2,0.2,0.5,0.4,0.7,0.6c0.3,0.2,0.6,0.4,1,0.6c0.3,0.2,0.7,0.4,1.1,0.5C6.4,6.4,6.7,6.5,7,6.6
	C7.5,6.8,8,6.9,8.5,7C8.8,7,9,7.1,9.3,7.1c0.2,0,0.3,0,0.5,0c0,0,0,0,0.1,0l0,0l0,0c0-0.1,0-0.3-0.1-0.4c0-0.2,0-0.3,0-0.5
	c0-0.5,0-0.8,0.2-1.2c0.1-0.3,0.2-0.6,0.4-0.8c0.1-0.2,0.3-0.4,0.5-0.6c0.4-0.4,0.8-0.7,1.3-0.8c0.3-0.1,0.5-0.2,0.8-0.2
	s0.6-0.1,0.9,0c0.5,0,0.9,0.1,1.3,0.3c0.3,0.1,0.5,0.3,0.7,0.4c0.1,0.1,0.3,0.2,0.4,0.4h0.1c0.5-0.1,1-0.3,1.5-0.5
	c0.2-0.1,0.5-0.2,0.7-0.4c0,0,0,0,0.1,0v0.1c-0.1,0.2-0.2,0.4-0.3,0.6c-0.2,0.3-0.4,0.6-0.7,0.9c-0.2,0.2-0.3,0.3-0.5,0.4l0,0
	c0.1,0,0.7-0.1,1.1-0.2c0.3-0.1,0.7-0.2,1-0.4l0,0C19,4.6,18.9,4.8,18.7,5c-0.2,0.2-0.3,0.4-0.5,0.6S17.8,6,17.5,6.2
	c0,0,0,0-0.1,0.1l-0.1,0.1c0,0.2,0,0.4,0,0.6s0,0.3,0,0.5s0,0.3,0,0.5c0,0.2,0,0.4-0.1,0.6c0,0.3-0.1,0.6-0.2,0.9
	c-0.1,0.4-0.2,0.8-0.4,1.2c-0.1,0.3-0.3,0.6-0.4,1c-0.2,0.4-0.4,0.8-0.7,1.2c-0.2,0.4-0.5,0.7-0.8,1.1c-0.3,0.3-0.6,0.6-0.9,0.9
	c-0.2,0.2-0.4,0.4-0.6,0.5c-0.3,0.2-0.6,0.5-1,0.7c-0.3,0.2-0.6,0.3-0.9,0.5c-0.3,0.1-0.5,0.2-0.8,0.3c-0.4,0.1-0.8,0.3-1.2,0.4
	c-0.3,0.1-0.7,0.2-1.1,0.2c-0.2,0-0.4,0-0.5,0.1c-0.2,0-0.4,0-0.6,0.1c-0.1,0-0.2,0-0.3,0c-0.3,0-0.6,0-0.8,0c-0.1,0-0.3,0-0.4,0
	s-0.2,0-0.3,0c-0.2,0-0.4,0-0.5-0.1c-0.3,0-0.5-0.1-0.8-0.2s-0.5-0.1-0.8-0.2S2.7,17,2.5,16.9c-0.4-0.2-0.7-0.3-1.1-0.5
	C1.3,16.1,1.1,16,0.8,15.8C0.8,15.9,0.8,15.9,0.8,15.8z"/>
</svg>
